<mxfile host="app.diagrams.net" modified="2023-09-21T16:34:17.466Z" agent="Mozilla/5.0 (X11; Linux x86_64) AppleWebKit/537.36 (KHTML, like Gecko) Chrome/116.0.0.0 Safari/537.36" etag="eOEtCyUxLmtD9sAp9lxf" version="21.7.5" type="github" pages="2">
  <diagram name="Page-1" id="CMFWBTMs6XeeeaYqNnAh">
    <mxGraphModel dx="1604" dy="803" grid="1" gridSize="10" guides="1" tooltips="1" connect="1" arrows="1" fold="1" page="1" pageScale="1" pageWidth="850" pageHeight="1100" math="0" shadow="0">
      <root>
        <mxCell id="0" />
        <mxCell id="1" parent="0" />
        <mxCell id="uj51F01hCYuMiOvDAW81-1" style="edgeStyle=orthogonalEdgeStyle;rounded=0;orthogonalLoop=1;jettySize=auto;html=1;exitX=0;exitY=0.5;exitDx=0;exitDy=0;entryX=0.5;entryY=0;entryDx=0;entryDy=0;" parent="1" source="XL5hVOVryI9xdL6bXow6-1" target="XL5hVOVryI9xdL6bXow6-18" edge="1">
          <mxGeometry relative="1" as="geometry" />
        </mxCell>
        <mxCell id="uj51F01hCYuMiOvDAW81-2" style="edgeStyle=orthogonalEdgeStyle;rounded=0;orthogonalLoop=1;jettySize=auto;html=1;exitX=0;exitY=0.5;exitDx=0;exitDy=0;entryX=0.5;entryY=0;entryDx=0;entryDy=0;" parent="1" source="XL5hVOVryI9xdL6bXow6-1" target="XL5hVOVryI9xdL6bXow6-17" edge="1">
          <mxGeometry relative="1" as="geometry" />
        </mxCell>
        <mxCell id="uj51F01hCYuMiOvDAW81-3" style="edgeStyle=orthogonalEdgeStyle;rounded=0;orthogonalLoop=1;jettySize=auto;html=1;exitX=0;exitY=0.5;exitDx=0;exitDy=0;entryX=0.5;entryY=0;entryDx=0;entryDy=0;" parent="1" source="XL5hVOVryI9xdL6bXow6-1" target="XL5hVOVryI9xdL6bXow6-19" edge="1">
          <mxGeometry relative="1" as="geometry" />
        </mxCell>
        <mxCell id="XL5hVOVryI9xdL6bXow6-1" value="" style="triangle;whiteSpace=wrap;html=1;rotation=-90;" parent="1" vertex="1">
          <mxGeometry x="395" y="250" width="60" height="80" as="geometry" />
        </mxCell>
        <mxCell id="XL5hVOVryI9xdL6bXow6-7" style="edgeStyle=orthogonalEdgeStyle;rounded=0;orthogonalLoop=1;jettySize=auto;html=1;exitX=0.5;exitY=0;exitDx=0;exitDy=0;entryX=0.5;entryY=1;entryDx=0;entryDy=0;" parent="1" source="XL5hVOVryI9xdL6bXow6-2" target="XL5hVOVryI9xdL6bXow6-4" edge="1">
          <mxGeometry relative="1" as="geometry" />
        </mxCell>
        <mxCell id="XL5hVOVryI9xdL6bXow6-9" style="edgeStyle=orthogonalEdgeStyle;rounded=0;orthogonalLoop=1;jettySize=auto;html=1;exitX=0.5;exitY=1;exitDx=0;exitDy=0;entryX=1;entryY=0.5;entryDx=0;entryDy=0;" parent="1" source="XL5hVOVryI9xdL6bXow6-2" target="XL5hVOVryI9xdL6bXow6-1" edge="1">
          <mxGeometry relative="1" as="geometry" />
        </mxCell>
        <mxCell id="XL5hVOVryI9xdL6bXow6-2" value="Users" style="rounded=0;whiteSpace=wrap;html=1;" parent="1" vertex="1">
          <mxGeometry x="365" y="140" width="120" height="60" as="geometry" />
        </mxCell>
        <mxCell id="XL5hVOVryI9xdL6bXow6-4" value="Personal Information" style="ellipse;whiteSpace=wrap;html=1;" parent="1" vertex="1">
          <mxGeometry x="380" y="40" width="90" height="50" as="geometry" />
        </mxCell>
        <mxCell id="XL5hVOVryI9xdL6bXow6-17" value="Female" style="rounded=0;whiteSpace=wrap;html=1;" parent="1" vertex="1">
          <mxGeometry x="200" y="380" width="120" height="60" as="geometry" />
        </mxCell>
        <mxCell id="XL5hVOVryI9xdL6bXow6-18" value="Male" style="rounded=0;whiteSpace=wrap;html=1;" parent="1" vertex="1">
          <mxGeometry x="365" y="380" width="120" height="60" as="geometry" />
        </mxCell>
        <mxCell id="XL5hVOVryI9xdL6bXow6-19" value="Other" style="rounded=0;whiteSpace=wrap;html=1;" parent="1" vertex="1">
          <mxGeometry x="530" y="380" width="120" height="60" as="geometry" />
        </mxCell>
        <mxCell id="uj51F01hCYuMiOvDAW81-4" style="edgeStyle=orthogonalEdgeStyle;rounded=0;orthogonalLoop=1;jettySize=auto;html=1;exitX=0;exitY=0.5;exitDx=0;exitDy=0;" parent="1" source="XL5hVOVryI9xdL6bXow6-21" target="XL5hVOVryI9xdL6bXow6-29" edge="1">
          <mxGeometry relative="1" as="geometry" />
        </mxCell>
        <mxCell id="uj51F01hCYuMiOvDAW81-5" style="edgeStyle=orthogonalEdgeStyle;rounded=0;orthogonalLoop=1;jettySize=auto;html=1;exitX=0;exitY=0.5;exitDx=0;exitDy=0;entryX=0.5;entryY=0;entryDx=0;entryDy=0;" parent="1" source="XL5hVOVryI9xdL6bXow6-21" target="XL5hVOVryI9xdL6bXow6-28" edge="1">
          <mxGeometry relative="1" as="geometry" />
        </mxCell>
        <mxCell id="uj51F01hCYuMiOvDAW81-7" style="edgeStyle=orthogonalEdgeStyle;rounded=0;orthogonalLoop=1;jettySize=auto;html=1;exitX=0;exitY=0.5;exitDx=0;exitDy=0;entryX=0.5;entryY=0;entryDx=0;entryDy=0;" parent="1" source="XL5hVOVryI9xdL6bXow6-21" target="XL5hVOVryI9xdL6bXow6-31" edge="1">
          <mxGeometry relative="1" as="geometry" />
        </mxCell>
        <mxCell id="6MFee01HL6qO_C3ecavV-3" style="edgeStyle=orthogonalEdgeStyle;rounded=0;orthogonalLoop=1;jettySize=auto;html=1;exitX=0;exitY=0.5;exitDx=0;exitDy=0;" parent="1" source="XL5hVOVryI9xdL6bXow6-21" target="XL5hVOVryI9xdL6bXow6-30" edge="1">
          <mxGeometry relative="1" as="geometry" />
        </mxCell>
        <mxCell id="XL5hVOVryI9xdL6bXow6-21" value="" style="triangle;whiteSpace=wrap;html=1;rotation=-90;" parent="1" vertex="1">
          <mxGeometry x="395" y="760" width="60" height="80" as="geometry" />
        </mxCell>
        <mxCell id="XL5hVOVryI9xdL6bXow6-22" style="edgeStyle=orthogonalEdgeStyle;rounded=0;orthogonalLoop=1;jettySize=auto;html=1;exitX=0.5;exitY=0;exitDx=0;exitDy=0;entryX=0.5;entryY=1;entryDx=0;entryDy=0;" parent="1" source="XL5hVOVryI9xdL6bXow6-25" target="XL5hVOVryI9xdL6bXow6-26" edge="1">
          <mxGeometry relative="1" as="geometry" />
        </mxCell>
        <mxCell id="XL5hVOVryI9xdL6bXow6-23" style="edgeStyle=orthogonalEdgeStyle;rounded=0;orthogonalLoop=1;jettySize=auto;html=1;exitX=0.5;exitY=0;exitDx=0;exitDy=0;entryX=0.5;entryY=1;entryDx=0;entryDy=0;" parent="1" source="XL5hVOVryI9xdL6bXow6-25" target="XL5hVOVryI9xdL6bXow6-27" edge="1">
          <mxGeometry relative="1" as="geometry" />
        </mxCell>
        <mxCell id="XL5hVOVryI9xdL6bXow6-24" style="edgeStyle=orthogonalEdgeStyle;rounded=0;orthogonalLoop=1;jettySize=auto;html=1;exitX=0.5;exitY=1;exitDx=0;exitDy=0;entryX=1;entryY=0.5;entryDx=0;entryDy=0;" parent="1" source="XL5hVOVryI9xdL6bXow6-25" target="XL5hVOVryI9xdL6bXow6-21" edge="1">
          <mxGeometry relative="1" as="geometry" />
        </mxCell>
        <mxCell id="XL5hVOVryI9xdL6bXow6-25" value="Relationship type" style="rounded=0;whiteSpace=wrap;html=1;" parent="1" vertex="1">
          <mxGeometry x="365" y="650" width="120" height="60" as="geometry" />
        </mxCell>
        <mxCell id="XL5hVOVryI9xdL6bXow6-26" value="Filters" style="ellipse;whiteSpace=wrap;html=1;" parent="1" vertex="1">
          <mxGeometry x="295" y="560" width="90" height="50" as="geometry" />
        </mxCell>
        <mxCell id="XL5hVOVryI9xdL6bXow6-27" value="Personal Information" style="ellipse;whiteSpace=wrap;html=1;" parent="1" vertex="1">
          <mxGeometry x="455" y="560" width="90" height="50" as="geometry" />
        </mxCell>
        <mxCell id="XL5hVOVryI9xdL6bXow6-28" value="Freindship" style="rounded=0;whiteSpace=wrap;html=1;" parent="1" vertex="1">
          <mxGeometry x="120" y="890" width="120" height="60" as="geometry" />
        </mxCell>
        <mxCell id="XL5hVOVryI9xdL6bXow6-29" value="Long-term" style="rounded=0;whiteSpace=wrap;html=1;" parent="1" vertex="1">
          <mxGeometry x="290" y="890" width="120" height="60" as="geometry" />
        </mxCell>
        <mxCell id="XL5hVOVryI9xdL6bXow6-30" value="Short-term" style="rounded=0;whiteSpace=wrap;html=1;" parent="1" vertex="1">
          <mxGeometry x="450" y="890" width="120" height="60" as="geometry" />
        </mxCell>
        <mxCell id="XL5hVOVryI9xdL6bXow6-31" value="Still figuring out" style="rounded=0;whiteSpace=wrap;html=1;" parent="1" vertex="1">
          <mxGeometry x="610" y="890" width="120" height="60" as="geometry" />
        </mxCell>
        <mxCell id="ZVlULNfIsz8KMZa0kOKi-3" value="ISA" style="text;html=1;strokeColor=none;fillColor=none;align=center;verticalAlign=middle;whiteSpace=wrap;rounded=0;" parent="1" vertex="1">
          <mxGeometry x="395" y="280" width="60" height="30" as="geometry" />
        </mxCell>
        <mxCell id="ZVlULNfIsz8KMZa0kOKi-4" value="ISA" style="text;html=1;strokeColor=none;fillColor=none;align=center;verticalAlign=middle;whiteSpace=wrap;rounded=0;" parent="1" vertex="1">
          <mxGeometry x="395" y="790" width="60" height="30" as="geometry" />
        </mxCell>
      </root>
    </mxGraphModel>
  </diagram>
  <diagram id="gDnThyjmkMoNUeV4jhxV" name="Page-2">
    <mxGraphModel dx="1604" dy="803" grid="1" gridSize="10" guides="1" tooltips="1" connect="1" arrows="1" fold="1" page="1" pageScale="1" pageWidth="850" pageHeight="1100" math="0" shadow="0">
      <root>
        <mxCell id="0" />
        <mxCell id="1" parent="0" />
        <mxCell id="MR3Cpr9PsUllT5A57jdb-1" style="edgeStyle=orthogonalEdgeStyle;rounded=0;orthogonalLoop=1;jettySize=auto;html=1;exitX=0;exitY=0.5;exitDx=0;exitDy=0;entryX=0.5;entryY=0;entryDx=0;entryDy=0;" parent="1" source="qPH071be2A1ZNzbyWB3O-1" target="qPH071be2A1ZNzbyWB3O-9" edge="1">
          <mxGeometry relative="1" as="geometry" />
        </mxCell>
        <mxCell id="MR3Cpr9PsUllT5A57jdb-2" style="edgeStyle=orthogonalEdgeStyle;rounded=0;orthogonalLoop=1;jettySize=auto;html=1;exitX=0;exitY=0.5;exitDx=0;exitDy=0;" parent="1" source="qPH071be2A1ZNzbyWB3O-1" target="qPH071be2A1ZNzbyWB3O-10" edge="1">
          <mxGeometry relative="1" as="geometry" />
        </mxCell>
        <mxCell id="MR3Cpr9PsUllT5A57jdb-3" style="edgeStyle=orthogonalEdgeStyle;rounded=0;orthogonalLoop=1;jettySize=auto;html=1;exitX=0;exitY=0.5;exitDx=0;exitDy=0;" parent="1" source="qPH071be2A1ZNzbyWB3O-1" target="qPH071be2A1ZNzbyWB3O-8" edge="1">
          <mxGeometry relative="1" as="geometry" />
        </mxCell>
        <mxCell id="MR3Cpr9PsUllT5A57jdb-4" style="edgeStyle=orthogonalEdgeStyle;rounded=0;orthogonalLoop=1;jettySize=auto;html=1;exitX=0;exitY=0.5;exitDx=0;exitDy=0;" parent="1" source="qPH071be2A1ZNzbyWB3O-1" target="qPH071be2A1ZNzbyWB3O-11" edge="1">
          <mxGeometry relative="1" as="geometry" />
        </mxCell>
        <mxCell id="qPH071be2A1ZNzbyWB3O-1" value="" style="triangle;whiteSpace=wrap;html=1;rotation=-90;" parent="1" vertex="1">
          <mxGeometry x="397.5" y="267.5" width="55" height="80" as="geometry" />
        </mxCell>
        <mxCell id="qPH071be2A1ZNzbyWB3O-2" style="edgeStyle=orthogonalEdgeStyle;rounded=0;orthogonalLoop=1;jettySize=auto;html=1;exitX=0.5;exitY=0;exitDx=0;exitDy=0;entryX=0.5;entryY=1;entryDx=0;entryDy=0;" parent="1" source="qPH071be2A1ZNzbyWB3O-5" target="qPH071be2A1ZNzbyWB3O-6" edge="1">
          <mxGeometry relative="1" as="geometry" />
        </mxCell>
        <mxCell id="qPH071be2A1ZNzbyWB3O-3" style="edgeStyle=orthogonalEdgeStyle;rounded=0;orthogonalLoop=1;jettySize=auto;html=1;exitX=0.5;exitY=0;exitDx=0;exitDy=0;entryX=0.5;entryY=1;entryDx=0;entryDy=0;" parent="1" source="qPH071be2A1ZNzbyWB3O-5" target="qPH071be2A1ZNzbyWB3O-7" edge="1">
          <mxGeometry relative="1" as="geometry" />
        </mxCell>
        <mxCell id="qPH071be2A1ZNzbyWB3O-4" style="edgeStyle=orthogonalEdgeStyle;rounded=0;orthogonalLoop=1;jettySize=auto;html=1;exitX=0.5;exitY=1;exitDx=0;exitDy=0;entryX=1;entryY=0.5;entryDx=0;entryDy=0;" parent="1" source="qPH071be2A1ZNzbyWB3O-5" target="qPH071be2A1ZNzbyWB3O-1" edge="1">
          <mxGeometry relative="1" as="geometry" />
        </mxCell>
        <mxCell id="qPH071be2A1ZNzbyWB3O-5" value="Musical Profile" style="rounded=0;whiteSpace=wrap;html=1;" parent="1" vertex="1">
          <mxGeometry x="365" y="160" width="120" height="60" as="geometry" />
        </mxCell>
        <mxCell id="qPH071be2A1ZNzbyWB3O-6" value="Filters" style="ellipse;whiteSpace=wrap;html=1;" parent="1" vertex="1">
          <mxGeometry x="300" y="70" width="90" height="50" as="geometry" />
        </mxCell>
        <mxCell id="qPH071be2A1ZNzbyWB3O-7" value="Accounts" style="ellipse;whiteSpace=wrap;html=1;" parent="1" vertex="1">
          <mxGeometry x="460" y="70" width="90" height="50" as="geometry" />
        </mxCell>
        <mxCell id="qPH071be2A1ZNzbyWB3O-8" value="Top Artists" style="rounded=0;whiteSpace=wrap;html=1;" parent="1" vertex="1">
          <mxGeometry x="120" y="400" width="120" height="60" as="geometry" />
        </mxCell>
        <mxCell id="qPH071be2A1ZNzbyWB3O-9" value="Top Songs" style="rounded=0;whiteSpace=wrap;html=1;" parent="1" vertex="1">
          <mxGeometry x="290" y="400" width="120" height="60" as="geometry" />
        </mxCell>
        <mxCell id="qPH071be2A1ZNzbyWB3O-10" value="Top Albums" style="rounded=0;whiteSpace=wrap;html=1;" parent="1" vertex="1">
          <mxGeometry x="450" y="400" width="120" height="60" as="geometry" />
        </mxCell>
        <mxCell id="qPH071be2A1ZNzbyWB3O-11" value="Top Genres" style="rounded=0;whiteSpace=wrap;html=1;" parent="1" vertex="1">
          <mxGeometry x="610" y="400" width="120" height="60" as="geometry" />
        </mxCell>
        <mxCell id="CGzk2LBXiy2_fDHqyIhd-1" value="ISA" style="text;html=1;strokeColor=none;fillColor=none;align=center;verticalAlign=middle;whiteSpace=wrap;rounded=0;" parent="1" vertex="1">
          <mxGeometry x="395" y="300" width="60" height="30" as="geometry" />
        </mxCell>
        <mxCell id="ixZO2ZqRAHQX-Kkasnnb-17" style="edgeStyle=orthogonalEdgeStyle;rounded=0;orthogonalLoop=1;jettySize=auto;html=1;exitX=0;exitY=0.5;exitDx=0;exitDy=0;entryX=0.5;entryY=0;entryDx=0;entryDy=0;" edge="1" parent="1" source="ixZO2ZqRAHQX-Kkasnnb-21" target="ixZO2ZqRAHQX-Kkasnnb-29">
          <mxGeometry relative="1" as="geometry" />
        </mxCell>
        <mxCell id="ixZO2ZqRAHQX-Kkasnnb-18" style="edgeStyle=orthogonalEdgeStyle;rounded=0;orthogonalLoop=1;jettySize=auto;html=1;exitX=0;exitY=0.5;exitDx=0;exitDy=0;" edge="1" parent="1" source="ixZO2ZqRAHQX-Kkasnnb-21" target="ixZO2ZqRAHQX-Kkasnnb-30">
          <mxGeometry relative="1" as="geometry" />
        </mxCell>
        <mxCell id="ixZO2ZqRAHQX-Kkasnnb-19" style="edgeStyle=orthogonalEdgeStyle;rounded=0;orthogonalLoop=1;jettySize=auto;html=1;exitX=0;exitY=0.5;exitDx=0;exitDy=0;" edge="1" parent="1" source="ixZO2ZqRAHQX-Kkasnnb-21" target="ixZO2ZqRAHQX-Kkasnnb-28">
          <mxGeometry relative="1" as="geometry" />
        </mxCell>
        <mxCell id="ixZO2ZqRAHQX-Kkasnnb-20" style="edgeStyle=orthogonalEdgeStyle;rounded=0;orthogonalLoop=1;jettySize=auto;html=1;exitX=0;exitY=0.5;exitDx=0;exitDy=0;" edge="1" parent="1" source="ixZO2ZqRAHQX-Kkasnnb-21" target="ixZO2ZqRAHQX-Kkasnnb-31">
          <mxGeometry relative="1" as="geometry" />
        </mxCell>
        <mxCell id="ixZO2ZqRAHQX-Kkasnnb-21" value="" style="triangle;whiteSpace=wrap;html=1;rotation=-90;" vertex="1" parent="1">
          <mxGeometry x="397.5" y="747.5" width="55" height="80" as="geometry" />
        </mxCell>
        <mxCell id="ixZO2ZqRAHQX-Kkasnnb-24" style="edgeStyle=orthogonalEdgeStyle;rounded=0;orthogonalLoop=1;jettySize=auto;html=1;exitX=0.5;exitY=1;exitDx=0;exitDy=0;entryX=1;entryY=0.5;entryDx=0;entryDy=0;" edge="1" parent="1" source="ixZO2ZqRAHQX-Kkasnnb-25" target="ixZO2ZqRAHQX-Kkasnnb-21">
          <mxGeometry relative="1" as="geometry" />
        </mxCell>
        <mxCell id="ixZO2ZqRAHQX-Kkasnnb-25" value="FIlter" style="rounded=0;whiteSpace=wrap;html=1;" vertex="1" parent="1">
          <mxGeometry x="365" y="640" width="120" height="60" as="geometry" />
        </mxCell>
        <mxCell id="ixZO2ZqRAHQX-Kkasnnb-28" value="Age" style="rounded=0;whiteSpace=wrap;html=1;" vertex="1" parent="1">
          <mxGeometry x="120" y="880" width="120" height="60" as="geometry" />
        </mxCell>
        <mxCell id="ixZO2ZqRAHQX-Kkasnnb-29" value="Gender" style="rounded=0;whiteSpace=wrap;html=1;" vertex="1" parent="1">
          <mxGeometry x="290" y="880" width="120" height="60" as="geometry" />
        </mxCell>
        <mxCell id="ixZO2ZqRAHQX-Kkasnnb-30" value="Musical Profile" style="rounded=0;whiteSpace=wrap;html=1;" vertex="1" parent="1">
          <mxGeometry x="450" y="880" width="120" height="60" as="geometry" />
        </mxCell>
        <mxCell id="ixZO2ZqRAHQX-Kkasnnb-31" value="Distance" style="rounded=0;whiteSpace=wrap;html=1;" vertex="1" parent="1">
          <mxGeometry x="610" y="880" width="120" height="60" as="geometry" />
        </mxCell>
        <mxCell id="ixZO2ZqRAHQX-Kkasnnb-32" value="ISA" style="text;html=1;strokeColor=none;fillColor=none;align=center;verticalAlign=middle;whiteSpace=wrap;rounded=0;" vertex="1" parent="1">
          <mxGeometry x="395" y="780" width="60" height="30" as="geometry" />
        </mxCell>
      </root>
    </mxGraphModel>
  </diagram>
</mxfile>
